<?xml version="1.0" encoding="UTF-8" standalone="no"?>
<svg
   width="2171mm"
   height="451mm"
   viewBox="0 -451 2171 451"
   version="1.1"
   id="svg1401"
   sodipodi:docname="séparateurN2.svg.2022_03_31_16_16_46.0.svg"
   inkscape:version="1.1.1 (3bf5ae0d25, 2021-09-20)"
   xmlns:inkscape="http://www.inkscape.org/namespaces/inkscape"
   xmlns:sodipodi="http://sodipodi.sourceforge.net/DTD/sodipodi-0.dtd"
   xmlns="http://www.w3.org/2000/svg"
   xmlns:svg="http://www.w3.org/2000/svg"
   xmlns:rdf="http://www.w3.org/1999/02/22-rdf-syntax-ns#"
   xmlns:cc="http://creativecommons.org/ns#"
   xmlns:dc="http://purl.org/dc/elements/1.1/">
  <defs
     id="defs1405" />
  <sodipodi:namedview
     id="namedview1403"
     pagecolor="#ffffff"
     bordercolor="#666666"
     borderopacity="1.0"
     inkscape:pageshadow="2"
     inkscape:pageopacity="0.0"
     inkscape:pagecheckerboard="0"
     inkscape:document-units="mm"
     showgrid="false"
     showguides="true"
     inkscape:guide-bbox="true"
     inkscape:zoom="0.1767767"
     inkscape:cx="3939.999"
     inkscape:cy="828.72915"
     inkscape:window-width="1600"
     inkscape:window-height="837"
     inkscape:window-x="-8"
     inkscape:window-y="-8"
     inkscape:window-maximized="1"
     inkscape:current-layer="svg1401" />
  <title
     id="title1397">OpenSCAD Model</title>
  <path
     d="m 538.25715,-156.63425 v 2.99799 l -10.0014,4.7e-4 v -2.99799 l -70.50119,4e-5 v 47 l 88.5,0.001 -2e-5,-22.00128 h 2.9827 l 2e-5,22.00132 47.017,6.8e-4 0.003,-22.002 h 3 l -0.003,22.00204 36.9999,4.3e-4 -5.6e-4,-22.00247 h 3 l 4.6e-4,22.0024 85.5178,-0.002 v -22.00001 h 2.9826 v -25.00012 h -2.9826 -8.01961 v 3.00127 l -10.0014,-8e-4 v -3.00047 l -49.48136,-1e-4 v 3.00008 h -9.99712 l -4e-4,-3.00008 -19.01579,-0.003 v 3.00118 l -10.00149,0.002 10e-5,-3.00008 h -0.98644 v 2.99799 h -9.99271 v -2.99799 h -19.0206 v 2.99799 h -10.00139 v -2.99799 l -10.9832,4.8e-4 v 2.99799 l -9.9975,-4.7e-4 v -2.99799 z"
     id="path1476"
     sodipodi:nodetypes="cccccccccccccccccccccccccccccccccccccccccccccccc"
     style="stroke-width:0.688067" />
  <path
     d="m 1047.7071,-106.09099 v -25.001 l -7.9566,0.001 v 3.001 l -10.0014,-0.001 v -3 h -52.47335 v 3 h -9.99751 v -3 h -8.01357 v 25 h -3.0457 v -25 h -7.95652 v 3 h -10.00139 v -3 H 778.16388 v 47.000027 h 400.00002 v -47.000027 h -109.4001 v 3 h -9.9975 v -3 h -8.0136 v 25.001 z"
     id="path1470-5"
     sodipodi:nodetypes="ccccccccccccccccccccccccccccc"
     style="stroke-width:1.00759" />
  <path
     d="m 977.27577,-207.7245 v 3 h -9.99763 l 10e-5,-3 h -8.01356 l -2e-5,24.99999 h -3.0457 l 2e-5,-24.99999 h -7.95653 v 3 h -10.00139 v -3 H 778.16388 v 46.99999 h 400.00142 v -46.99999 z"
     id="path1470-5-2"
     sodipodi:nodetypes="ccccccccccccccccc"
     style="stroke-width:1.00759" />
  <path
     d="m 800.98463,-299.83037 2e-5,24.99788 3.0151,-6e-5 v 22 l 111.55779,1e-5 v -22 h 3.0151 v 22 h 152.40886 v -47 l -134.3978,-1e-5 v 2.9235 l -9.99749,4e-5 v -2.9235 l -19.01582,-4e-5 v 2.92453 l -10.00139,-10e-4 v -2.9235 l -75.54249,10e-4 v 2.9245 l -10.02349,10e-6 v -2.92347 z"
     id="path1468"
     style="stroke-width:0.868198"
     sodipodi:nodetypes="ccccccccccccccccccccccc" />
  <metadata
     id="metadata1407">
    <rdf:RDF>
      <cc:Work
         rdf:about="">
        <dc:title>OpenSCAD Model</dc:title>
      </cc:Work>
    </rdf:RDF>
  </metadata>
  <path
     style="fill:none;stroke:#000000;stroke-width:0.264583px;stroke-linecap:butt;stroke-linejoin:miter;stroke-opacity:1"
     d="m 1559.4392,-25.34573 c 0.9978,0.498898 1.9956,0.997797 2.9934,1.496721"
     id="path6248" />
  <path
     d="m 565.99324,-205.77018 h -2.9771 l 1e-5,-25 h -8.00241 v 3 h -10.00149 l 10e-5,-2.999 -109.0691,-0.001 v 46.999 h 130.05 z"
     id="path1470-5-3-0"
     sodipodi:nodetypes="ccccccccccc"
     style="stroke-width:0.996177" />
  <path
     d="m 717.74553,-206.66588 h -2.9771 l 1e-5,-25 h -7.99741 v 3 l -10.00149,-0.001 10e-5,-2.999 h -109.0741 v 46.999 h 130.05 z"
     id="path1470-5-3-0-1"
     sodipodi:nodetypes="ccccccccccc"
     style="stroke-width:0.996177" />
  <path
     d="m 706.85867,-272.90764 h -3 v -24.99924 h -7.99743 v 3 H 685.8598 l 6e-5,-3 H 436.85789 v 46.99825 h 270.00078 z"
     id="path1470-5-3-1"
     sodipodi:nodetypes="ccccccccccc"
     style="stroke-width:1.43537" />
  <path
     id="rect21508"
     style="fill:none;stroke:#000000;stroke-width:0.384985;stroke-opacity:1"
     d="M 1118.1822,-370.60056 V -362.6 h -7.9974 v 2.99648 h 7.9974 v 7.99779 h 3.0048 v -7.99779 h 8.0136 V -362.6 h -8.0136 v -8.00056 z m 21.0159,-10.00438 v 38.99497 h -39.0147 v -38.99497 z"
     sodipodi:nodetypes="cccccccccccccccccc" />
  <path
     id="rect21508-2"
     style="fill:none;stroke:#000000;stroke-width:0.384985;stroke-opacity:1"
     d="m 1118.3972,-330.54723 v 8.00053 h -8.0023 v 2.81532 h 8.0023 v 7.99899 h 2.8148 v -7.99899 h 7.9876 v -2.81532 h -7.9876 v -8.00053 z m 20.8009,-10.0044 v 38.81499 h -38.8047 v -38.81499 z"
     sodipodi:nodetypes="cccccccccccccccccc" />
  <path
     id="rect21508-4"
     style="fill:none;stroke:#000000;stroke-width:0.384985;stroke-opacity:1"
     d="m 1158.2602,-370.42056 v 8.00053 h -8.0023 v 2.81532 h 8.0023 v 7.99899 h 2.8148 v -7.99899 h 7.9877 v -2.81532 h -7.9877 v -8.00053 z m 20.801,-10.0044 v 38.81499 h -38.8047 v -38.81499 z"
     sodipodi:nodetypes="cccccccccccccccccc" />
  <path
     id="rect21508-0"
     style="fill:none;stroke:#000000;stroke-width:0.384985;stroke-opacity:1"
     d="m 1158.2603,-330.54723 v 8.00053 h -8.0024 v 2.81532 h 8.0024 v 7.99899 h 2.8148 v -7.99899 h 7.9876 v -2.81532 h -7.9876 v -8.00053 z m 20.8009,-10.0044 v 38.81499 h -38.8047 v -38.81499 z"
     sodipodi:nodetypes="cccccccccccccccccc" />
  <path
     id="rect21508-9"
     style="fill:none;stroke:#000000;stroke-width:0.384985;stroke-opacity:1"
     d="m 1198.1234,-370.42056 v 8.00053 h -8.0024 v 2.81532 h 8.0024 v 7.99899 h 2.8148 v -7.99899 h 7.9876 v -2.81532 h -7.9876 v -8.00053 z m 20.8009,-10.0044 v 38.81499 h -38.8047 v -38.81499 z"
     sodipodi:nodetypes="cccccccccccccccccc" />
  <path
     id="rect21508-6"
     style="fill:none;stroke:#000000;stroke-width:0.384985;stroke-opacity:1"
     d="m 1198.1234,-330.54723 v 8.00053 h -8.0024 v 2.81532 h 8.0024 v 7.99899 h 2.8148 v -7.99899 h 7.9876 v -2.81532 h -7.9876 v -8.00053 z m 20.8009,-10.0044 v 38.81499 h -38.8047 v -38.81499 z"
     sodipodi:nodetypes="cccccccccccccccccc" />
</svg>
